<svg xmlns="http://www.w3.org/2000/svg" width="512" height="512" viewBox="0 0 512 512"><rect width="512" height="512" rx="112" fill="#e6f5ed"/><g transform="rotate(-25 256 350)" stroke="#263c36" stroke-width="10" stroke-linejoin="round"><path d="M220 172 256 100 292 172V374Q292 391 275 391H237Q220 391 220 374Z" fill="#ff6574"/><path d="M220 195h72v133h-72Z" fill="#fff9ed"/><path d="M236 222h40m-40 79h40" fill="none" stroke-linecap="round"/><path d="m256 100-14 28h28Z" fill="#ff6574" stroke="none"/></g><g transform="rotate(25 256 350)" stroke="#263c36" stroke-width="10" stroke-linejoin="round"><path d="M220 172 256 100 292 172V374Q292 391 275 391H237Q220 391 220 374Z" fill="#4a9ff0"/><path d="M220 195h72v133h-72Z" fill="#fff9ed"/><path d="M236 222h40m-40 79h40" fill="none" stroke-linecap="round"/><path d="m256 100-14 28h28Z" fill="#4a9ff0" stroke="none"/></g><g transform="rotate(0 256 350)" stroke="#263c36" stroke-width="10" stroke-linejoin="round"><path d="M220 172 256 100 292 172V374Q292 391 275 391H237Q220 391 220 374Z" fill="#ffd54a"/><path d="M220 195h72v133h-72Z" fill="#fff9ed"/><path d="M236 222h40m-40 79h40" fill="none" stroke-linecap="round"/><path d="m256 100-14 28h28Z" fill="#ffd54a" stroke="none"/></g></svg>